<?xml version="1.0" encoding="UTF-8"?>
<svg id="Capa_1" xmlns="http://www.w3.org/2000/svg" viewBox="0 0 256.34 156.59">
  <path d="M76.58,104.41c-7.05-.61-14-1.22-20.96-1.83-2.5,5.75,1.8,9.91,6.65,12.49,1.45.92,1.84,2.12,1.45,3.96-1.1,4.71-6.26,12.35-11.04,6.86-.99-.85-1.05-1.62-.33-2.69,9.39-10.11-7.98-6.62,1.54-20.78-1.66-.1-3.37-.7-3.94,1.3-3.75.82-3.78-6.38-4.35-8.98-9.14,10.01-36.36,28.09-37.68,3.12-16.39-7.35-3.29-23.65,3.39-11.51,6.24-10.32,15.57-9.84,7.96,2.96-1.37,2.19-3,4.17-4.92,5.9-.93.84-1.17.91-2.34.68-1.2,2.01-.9,3.69.59,5.27,10.1,10.19,21.7-3.44,30.64-8.35,4.72-7.59-5.48-29.67-8.19-40.35-3.65.76-7.29,1-10.81-.39-2.04.33-9.29-9.19-5.42-7.06,3.39,4.63,9.18,4.69,14.24,2.62-5.84-12.48-15.09-24.98-3.79-37.51-.3-3.11,1.51-12.59,3.18-3.72,4.41-4.61,7.08-3.77,3.87,2.41,8.57-2.41,4.08,4.94,2.27,4.45-4.66-2.2-4.74.48-6.32,4.35-3.72,7.91,2.02,15.79,4.55,23.24.71,1.69,1.27,3.44,1.89,5.12,13.11-2.7,26.15-5.38,39.35-8.09-3.44-10.76-10.02-21.37-19.76-27.35-1.36,1.5-3.24,7.84-5.23,4.33-1.71-2.84.31-3.22,2.44-4.87-5.84-.09-8.43-1.62-1.17-3.56-1.57-1.14-3.85-5.5-1.29-6.22,1.79-.31,4.06-.55,4.82,1.59-.38,7.26,5.75,3.09,12.45,12,5.63,6.7,12.42,12.98,14.53,21.79,4.82.49,3.02-7.92,5.46-8.38,3.09.96,1.18,5.89,1.52,8.38-.15,2.77-2.92,3.86-5.13,4.76-1.25,1.44,1.24,6.86,1.1,9.18,1.17,4.56.65,62.42-7.39,52.27-.38,1.48-2.07,1.99-1.76,3.54.58,16.17-7.7,33.41-22.62,40.67-2.68.68-.89,14.27-5.36,9.63-2.54-2.8-2.03-14,1.74-15.71,12.69-7.67,21.02-21.22,24.19-35.51ZM79.05,41.9c-1.95.84-5.75-.02-5.71,2.72-.74,6.89,2.53,21.86-7.73,21.51-4.92,1-5.45-5.16-7.59-8.12-6.8-13.74-.82-9.31-16.94-6.74,3.68,9.83,7.4,19.85,8.45,30.38.53,4.43,1.02,8.86,1.49,13.29-.01,5.45,1.14,3.76,5.39,2.87,7.89-.93,15.96-2.11,23.85-.58,1.29-9.57,1.72-19.41,1.11-29.08-.45-8.83.02-17.59-2.33-26.24ZM69.01,55.77c-.59-1.76.5-12.72-2.01-11.03-1.54.88-9.01,1.28-8.1,3.41,1.35,3.54,2.77,7.06,4.09,10.61.8,2.14,1.54,2.72,3.76,2.72,2.81.16,1.76-3.97,2.25-5.71ZM11.62,92.4c-3.12-.76-2.14-6.2-5.44-5.99-5.65,1.66,2.32,9.65,5.44,5.99ZM17.7,84.3c-2.38,1.95-4.05,4.42-5.22,7.25,2.19-2.08,3.9-4.52,5.22-7.25Z"/>
  <g>
    <path d="M116.3,39.53v32.64c0,2.92-.92,5.36-2.76,7.32-.92.96-2.01,1.72-3.27,2.28-1.26.56-2.73.84-4.41.84-1.96,0-3.59-.43-4.89-1.29-1.3-.86-2.33-1.71-3.09-2.55l4.8-3.84c.44.44.95.81,1.53,1.11s1.19.45,1.83.45c.36,0,.78-.07,1.26-.21.48-.14.94-.41,1.38-.81.44-.36.8-.87,1.08-1.53s.42-1.53.42-2.61v-31.8h6.12Z"/>
    <path d="M139.64,51.83v30.42h-6.12v-2.94h-.12c-.64.96-1.41,1.75-2.31,2.37-.9.62-2.05.93-3.45.93-.76,0-1.52-.13-2.28-.39-.76-.26-1.44-.69-2.04-1.29-.6-.6-1.08-1.37-1.44-2.31-.36-.94-.54-2.09-.54-3.45v-23.34h6.12v21.06c0,1.12.26,2,.78,2.64.52.64,1.26.96,2.22.96,1.16,0,1.96-.36,2.4-1.08.44-.72.66-1.76.66-3.12v-20.46h6.12Z"/>
    <path d="M144.68,82.25v-30.42h6.12v2.94h.12c.64-.96,1.41-1.75,2.31-2.37.9-.62,2.05-.93,3.45-.93,1.32,0,2.42.32,3.3.96.88.64,1.6,1.34,2.16,2.1.76-.84,1.6-1.56,2.52-2.16.92-.6,2.2-.9,3.84-.9.76,0,1.54.13,2.34.39.8.26,1.52.69,2.16,1.29.64.6,1.16,1.37,1.56,2.31.4.94.6,2.09.6,3.45v23.34h-6.12v-21.06c0-1.12-.26-2-.78-2.64-.52-.64-1.26-.96-2.22-.96-1.16,0-1.96.36-2.4,1.08-.44.72-.66,1.76-.66,3.12v20.46h-6.12v-21.06c0-1.12-.26-2-.78-2.64-.52-.64-1.26-.96-2.22-.96-1.16,0-1.96.36-2.4,1.08-.44.72-.66,1.76-.66,3.12v20.46h-6.12Z"/>
    <path d="M180.2,94.55v-42.72h6.12v2.76c.76-.88,1.54-1.62,2.34-2.22.8-.6,1.96-.9,3.48-.9,2.52,0,4.3.96,5.34,2.88.36.68.62,1.52.78,2.52.16,1,.24,2.34.24,4.02v11.58c0,2.24-.06,3.86-.18,4.86-.24,2-1.16,3.5-2.76,4.5-.8.52-1.96.78-3.48.78-1.2,0-2.27-.27-3.21-.81-.94-.54-1.75-1.31-2.43-2.31h-.12v15.06h-6.12ZM192.38,61.73c0-1.24-.24-2.24-.72-3-.48-.76-1.24-1.14-2.28-1.14-.92,0-1.66.35-2.22,1.05-.56.7-.84,1.61-.84,2.73v11.82c0,.96.29,1.75.87,2.37.58.62,1.31.93,2.19.93,1.16,0,1.95-.36,2.37-1.08.42-.72.63-1.56.63-2.52v-11.16Z"/>
    <path d="M203.54,45.65v-6.12h6.12v6.12h-6.12ZM203.54,82.25v-30.42h6.12v30.42h-6.12Z"/>
    <path d="M214.7,82.25v-30.42h6.12v2.94h.12c.64-.96,1.41-1.75,2.31-2.37.9-.62,2.05-.93,3.45-.93.76,0,1.52.13,2.28.39.76.26,1.44.69,2.04,1.29.6.6,1.08,1.37,1.44,2.31.36.94.54,2.09.54,3.45v23.34h-6.12v-21.06c0-1.12-.26-2-.78-2.64-.52-.64-1.26-.96-2.22-.96-1.16,0-1.96.36-2.4,1.08-.44.72-.66,1.76-.66,3.12v20.46h-6.12Z"/>
    <path d="M244.16,85.79c.04.72.33,1.4.87,2.04.54.64,1.33.96,2.37.96s1.72-.31,2.16-.93c.44-.62.66-1.41.66-2.37v-6h-.12c-.68,1-1.49,1.77-2.43,2.31-.94.54-2.03.81-3.27.81-2.56,0-4.34-.96-5.34-2.88-.36-.68-.62-1.52-.78-2.52-.16-1-.24-2.34-.24-4.02v-11.58c0-2.2.06-3.82.18-4.86.24-2,1.18-3.5,2.82-4.5.76-.52,1.9-.78,3.42-.78.76,0,1.41.08,1.95.24.54.16,1.03.38,1.47.66.44.28.84.61,1.2.99.36.38.74.79,1.14,1.23v-2.76h6.12v34.14c0,1.04-.17,2.09-.51,3.15-.34,1.06-.89,2.01-1.65,2.85-.76.88-1.72,1.59-2.88,2.13-1.16.54-2.54.81-4.14.81-.92,0-1.88-.15-2.88-.45s-1.92-.81-2.76-1.53c-.88-.68-1.63-1.59-2.25-2.73-.62-1.14-1.03-2.61-1.23-4.41h6.12ZM244.16,72.89c0,.96.21,1.8.63,2.52.42.72,1.21,1.08,2.37,1.08.88,0,1.61-.31,2.19-.93.58-.62.87-1.41.87-2.37v-11.82c0-1.12-.28-2.03-.84-2.73-.56-.7-1.3-1.05-2.22-1.05-1.04,0-1.8.38-2.28,1.14-.48.76-.72,1.76-.72,3v11.16Z"/>
  </g>
  <g>
    <path d="M108.08,135.74v-18.06l-8.4-24.66h6.48l4.92,16.98h.12l4.92-16.98h6.48l-8.4,24.66v18.06h-6.12Z"/>
    <path d="M133.57,135.74v-3.12h-.12c-.8,1.12-1.61,1.98-2.43,2.58-.82.6-1.97.9-3.45.9-.72,0-1.45-.11-2.19-.33-.74-.22-1.45-.63-2.13-1.23-.68-.56-1.23-1.37-1.65-2.43-.42-1.06-.63-2.43-.63-4.11s.14-3.23.42-4.53c.28-1.3.8-2.39,1.56-3.27.72-.84,1.7-1.47,2.94-1.89,1.24-.42,2.82-.63,4.74-.63h.66c.24,0,.46.02.66.06.2.04.44.06.72.06s.58.02.9.06v-3.18c0-1.04-.22-1.9-.66-2.58-.44-.68-1.24-1.02-2.4-1.02-.8,0-1.53.26-2.19.78-.66.52-1.09,1.28-1.29,2.28h-5.94c.16-2.72,1.08-4.92,2.76-6.6.8-.8,1.76-1.43,2.88-1.89,1.12-.46,2.38-.69,3.78-.69,1.28,0,2.48.2,3.6.6,1.12.4,2.1,1,2.94,1.8.8.8,1.44,1.8,1.92,3s.72,2.6.72,4.2v21.18h-6.12ZM133.57,122.66c-.68-.12-1.24-.18-1.68-.18-1.32,0-2.45.31-3.39.93-.94.62-1.41,1.75-1.41,3.39,0,1.16.28,2.1.84,2.82.56.72,1.34,1.08,2.34,1.08s1.85-.34,2.43-1.02c.58-.68.87-1.64.87-2.88v-4.14Z"/>
    <path d="M144.19,135.74v-42.72h6.12v25.56h.12l7.38-13.26h6.12l-7.26,12.36,8.76,18.06h-6.66l-5.52-13.14-2.94,4.62v8.52h-6.12Z"/>
  </g>
</svg>